<?xml version="1.0" encoding="UTF-8" standalone="no"?>
<!DOCTYPE svg PUBLIC "-//W3C//DTD SVG 1.1//EN" "http://www.w3.org/Graphics/SVG/1.1/DTD/svg11.dtd">
<svg width="100%" height="100%" viewBox="0 0 995 679" version="1.1" xmlns="http://www.w3.org/2000/svg" xmlns:xlink="http://www.w3.org/1999/xlink" xml:space="preserve" xmlns:serif="http://www.serif.com/" style="fill-rule:evenodd;clip-rule:evenodd;stroke-miterlimit:10;">
    <g transform="matrix(0.935721,0,0,0.935721,-0.00119496,43.5897)">
        <g transform="matrix(0.999999,-0.001605,0.001605,0.999999,-103.979,-110.479)">
            <ellipse cx="282.662" cy="736.435" rx="179.865" ry="11.69" style="fill:rgb(230,230,230);"/>
        </g>
        <g transform="matrix(1,0,0,1,-102.797,-110.933)">
            <path d="M309.35,418.143L329.603,412.504C329.603,412.504 337.536,410.921 332.688,395.428C327.841,379.934 318.228,384.271 318.228,384.271L300.261,389.49L293.168,391.681L303.148,405.683L303.985,415.015L309.35,418.143Z" style="fill:rgb(63,61,86);fill-rule:nonzero;"/>
        </g>
        <path d="M167.418,266.274L161.064,291.656L193.622,323.209L196.421,323.911L203.888,321.813L210.243,296.433L203.806,289.664L210.385,287.94L196.345,274.31L189.019,275.848L183.142,270.013L187.108,268.428L187.483,266.935L182.678,263.153L167.418,266.274Z" style="fill:rgb(63,61,86);fill-rule:nonzero;"/>
        <path d="M197.922,302.074L193.716,318.87L174.312,300.526L179.171,283.496L197.922,302.074Z" style="fill:white;fill-rule:nonzero;"/>
        <path d="M167.418,266.274L166.527,269.833L198.902,301.328L201.701,302.029L208.936,300.071L209.334,300.063L210.243,296.433L203.806,289.664L210.385,287.94L196.345,274.31L189.019,275.848L183.142,270.013L187.108,268.428L187.483,266.935L182.678,263.153L167.418,266.274Z" style="fill:none;fill-rule:nonzero;stroke:rgb(63,61,86);stroke-width:1px;"/>
        <g transform="matrix(0.242879,-0.970057,0.970057,0.242879,-252.489,451.047)">
            <ellipse cx="285.171" cy="376.886" rx="1.828" ry="2.693" style="fill:white;"/>
        </g>
        <g transform="matrix(0.242879,-0.970057,0.970057,0.242879,-263.268,491.565)">
            <ellipse cx="305.739" cy="404.05" rx="1.828" ry="2.693" style="fill:white;"/>
        </g>
        <g transform="matrix(1,0,0,1,-102.797,-110.933)">
            <path d="M322.806,449.761L318.39,434.745C318.39,434.745 329.873,407.362 316.623,404.712C303.373,402.062 302.49,430.328 302.49,430.328L307.79,447.111L322.806,449.761Z" style="fill:rgb(255,182,182);fill-rule:nonzero;"/>
        </g>
        <circle cx="138.008" cy="274.542" r="35.088" style="fill:rgb(255,182,182);"/>
        <g transform="matrix(1,0,0,1,-102.797,-110.933)">
            <path d="M252.157,410.243C252.157,410.243 254.221,436.044 259.381,438.108C264.541,440.172 213.247,454.62 213.247,454.62L228.727,437.076C228.727,437.076 222.229,410.243 215.005,404.051L252.157,410.243Z" style="fill:rgb(255,182,182);fill-rule:nonzero;"/>
        </g>
        <g transform="matrix(1,0,0,1,-102.797,-110.933)">
            <path d="M301.606,441.811L315.74,440.045C315.74,440.045 332.523,448.878 332.523,460.361C332.523,471.845 342.24,490.395 342.24,490.395C342.24,490.395 349.306,515.128 333.406,516.895C317.506,518.661 303.373,490.395 303.373,490.395L301.606,441.811Z" style="fill:rgb(45,61,80);fill-rule:nonzero;"/>
        </g>
        <g transform="matrix(1,0,0,1,-102.797,-110.933)">
            <path d="M309.556,582.261L338.048,562.634C347.247,556.178 359.509,555.957 368.936,562.075C372.862,564.693 375.806,568.128 375.806,572.544C375.806,585.794 346.656,616.711 346.656,616.711C346.656,616.711 324.573,665.294 303.373,667.061C289.427,668.326 275.566,670.39 261.856,673.244C248.147,676.098 271.573,708.577 266.273,718.294C260.973,728.011 240.656,739.494 238.89,738.611C237.123,737.727 212.39,714.761 201.79,682.077C191.19,649.394 184.123,624.661 193.84,622.894C203.557,621.128 309.556,582.261 309.556,582.261Z" style="fill:rgb(47,46,65);fill-rule:nonzero;"/>
        </g>
        <g transform="matrix(1,0,0,1,-102.797,-110.933)">
            <path d="M373.156,569.894C373.156,569.894 379.339,569.011 378.456,584.028C377.573,599.044 374.923,652.928 370.506,663.528C366.089,674.128 365.206,686.494 366.973,690.911C368.739,695.327 372.273,702.394 366.089,703.277C359.906,704.161 334.29,700.627 331.64,699.744C328.99,698.861 342.24,664.411 340.473,662.644C338.706,660.878 336.94,619.361 336.94,619.361L373.156,569.894Z" style="fill:rgb(47,46,65);fill-rule:nonzero;"/>
        </g>
        <g transform="matrix(1,0,0,1,-102.797,-110.933)">
            <path d="M364.323,700.628C364.323,700.628 379.339,696.211 381.106,705.928C381.106,705.928 383.756,720.944 372.273,726.244C364.862,729.746 357.769,733.884 351.073,738.611C344.376,743.337 332.523,745.677 331.639,736.844C330.756,728.011 335.173,696.211 335.173,696.211L364.323,700.628Z" style="fill:rgb(47,46,65);fill-rule:nonzero;"/>
        </g>
        <g transform="matrix(1,0,0,1,-102.797,-110.933)">
            <path d="M264.506,711.227L236.24,688.261C236.24,688.261 241.54,716.527 234.473,721.827L231.245,731.265L240.284,738.659C240.284,738.659 268.04,734.194 264.506,711.227Z" style="fill:rgb(47,46,65);fill-rule:nonzero;"/>
        </g>
        <g transform="matrix(1,0,0,1,-102.797,-110.933)">
            <path d="M224.756,672.361C224.756,672.361 243.306,677.661 240.656,696.211C238.006,714.761 234.609,734.914 234.609,734.914C234.609,734.914 233.59,784.544 220.34,788.077C207.09,791.611 203.557,784.544 203.557,784.544C203.557,784.544 188.495,745.762 192.957,734.194C198.357,720.193 206.139,704.471 203.557,699.744C201.016,695.093 205.323,669.711 224.756,672.361Z" style="fill:rgb(47,46,65);fill-rule:nonzero;"/>
        </g>
        <g transform="matrix(1,0,0,1,-102.797,-110.933)">
            <path d="M214.156,428.561C214.156,428.561 221.223,429.445 232.706,431.211C244.19,432.978 252.14,424.145 258.323,425.911C264.506,427.678 315.74,440.045 315.74,440.045L311.308,474.019C309.856,485.155 306.248,495.817 301.627,506.052C294.177,522.555 305.216,574.255 315.74,584.028C324.893,592.529 336.94,594.628 323.69,609.644C310.44,624.661 287.473,637.911 240.656,633.494C193.84,629.078 187.657,629.961 187.657,622.894C187.657,615.828 204.318,523.078 199.018,517.778C193.718,512.478 191.068,507.178 191.068,504.528C191.068,502.757 185.542,482.829 181.878,469.81C179.217,460.624 180.208,450.755 184.642,442.282C186.301,439.178 188.197,436.795 190.184,436.511C196.368,435.628 192.073,431.211 196.49,431.211C200.907,431.211 203.556,432.095 206.206,431.211L214.156,428.561Z" style="fill:rgb(45,61,80);fill-rule:nonzero;"/>
        </g>
        <g transform="matrix(1,0,0,1,-102.797,-110.933)">
            <path d="M281.86,361.807C281.86,361.807 281.061,318.447 238.501,338.972C238.501,338.972 205.775,337.818 201.195,379.215L196.767,422.555L201.51,418.989L204.688,423.89L213.356,424.775L215.887,417.151L218.886,425.515L288.333,422.259C288.333,422.259 255.009,408.645 249.738,376.226L256.486,381.536L281.86,361.807Z" style="fill:rgb(47,46,65);fill-rule:nonzero;"/>
        </g>
        <circle cx="99.073" cy="233.859" r="17.395" style="fill:rgb(47,46,65);"/>
        <g transform="matrix(1,0,0,1,-102.797,-80.9334)">
            <path d="M218.983,337.968C217.072,329.042 208.44,323.065 199.413,324.416C199.761,324.319 200.105,324.212 200.464,324.136C201.659,323.88 202.877,323.752 204.098,323.752C213.641,323.752 221.493,331.604 221.493,341.147C221.493,349.324 215.728,356.451 207.731,358.159C207.372,358.236 207.015,358.279 206.657,358.332C215.448,355.878 220.885,346.895 218.983,337.968Z" style="fill:rgb(47,46,65);fill-rule:nonzero;"/>
        </g>
    </g>
    <g transform="matrix(0.875175,0,0,0.875175,128.842,59.4438)">
        <g transform="matrix(0.999999,-0.001605,0.001605,0.999999,-103.737,-109.868)">
            <ellipse cx="663.127" cy="585.772" rx="141.228" ry="9.179" style="fill:rgb(230,230,230);"/>
        </g>
        <circle cx="541.812" cy="76.467" r="28.674" style="fill:rgb(47,46,65);"/>
        <g transform="matrix(1,0,0,1,-102.797,-110.933)">
            <path d="M659.706,206.489C659.706,206.489 659.275,224.189 661.001,224.62C662.728,225.052 637.258,231.959 637.258,231.959L634.668,207.784L659.706,206.489Z" style="fill:rgb(255,184,184);fill-rule:nonzero;"/>
        </g>
        <g transform="matrix(1,0,0,1,-102.797,-110.933)">
            <path d="M458.538,357.581C458.538,357.581 439.544,357.581 439.112,355.423C438.68,353.265 434.795,373.122 434.795,373.122L442.565,375.712C442.565,375.712 457.243,369.237 458.538,369.237C459.833,369.237 458.538,357.581 458.538,357.581Z" style="fill:rgb(255,184,184);fill-rule:nonzero;"/>
        </g>
        <g transform="matrix(1,0,0,1,-102.797,-110.933)">
            <path d="M437.817,365.352C437.817,365.352 441.27,353.696 445.587,353.265C445.587,353.265 430.91,343.767 430.478,340.745C430.046,337.724 424.866,329.953 422.708,332.543C420.549,335.133 420.549,376.144 424.434,380.461C428.32,384.778 445.587,374.393 445.587,374.393C445.587,374.393 434.795,369.669 437.817,365.352Z" style="fill:rgb(47,46,65);fill-rule:nonzero;"/>
        </g>
        <path d="M569.428,419.757L572.881,438.319L556.909,440.909L556.909,419.757L569.428,419.757Z" style="fill:rgb(255,184,184);fill-rule:nonzero;"/>
        <g transform="matrix(1,0,0,1,-102.797,-110.933)">
            <path d="M672.225,547.094C672.225,547.094 674.815,538.892 676.542,540.187C678.269,541.482 680.859,549.684 680.427,551.843C679.996,554.001 676.974,570.837 678.269,573.859C679.564,576.881 671.794,592.422 661.865,591.127C651.936,589.832 652.799,581.198 652.799,581.198L656.253,567.815L657.548,546.662C657.548,546.662 668.772,544.936 672.225,547.094Z" style="fill:rgb(47,46,65);fill-rule:nonzero;"/>
        </g>
        <circle cx="551.843" cy="46.288" r="11.865" style="fill:rgb(47,46,65);"/>
        <g transform="matrix(1,0,0,1,-102.797,-110.933)">
            <path d="M670.46,150.795C670.459,144.751 665.842,139.624 659.831,138.994C660.241,138.951 660.654,138.93 661.067,138.93C667.572,138.936 672.921,144.29 672.921,150.795C672.921,157.299 667.572,162.654 661.067,162.66C660.654,162.659 660.241,162.638 659.831,162.595C665.842,161.965 670.459,156.838 670.46,150.795Z" style="fill:rgb(47,46,65);fill-rule:nonzero;"/>
        </g>
        <circle cx="541.8" cy="89.512" r="18.131" style="fill:rgb(255,184,184);"/>
        <g transform="matrix(1,0,0,1,-102.797,-110.933)">
            <path d="M680.427,326.5C680.427,326.5 679.564,348.084 676.111,359.308C672.657,370.532 660.206,450.467 662.796,456.51C665.387,462.554 678.701,529.395 675.679,533.28C672.657,537.165 658.411,535.87 658.411,535.87L639.053,454.783C639.053,454.783 642.87,365.352 610.925,363.193C578.98,361.035 526.745,359.74 526.745,359.74C526.745,359.74 493.073,369.669 477.964,369.237C462.855,368.806 454.221,373.122 454.221,373.122L451.631,355.423L518.543,340.746C518.543,340.746 579.843,319.593 613.515,325.205C647.187,330.817 680.427,326.5 680.427,326.5Z" style="fill:rgb(47,46,65);fill-rule:nonzero;"/>
        </g>
        <g transform="matrix(1,0,0,1,-102.797,-110.933)">
            <path d="M656.253,219.008C656.253,219.008 661.433,215.987 662.728,219.008C664.023,222.03 673.089,224.62 676.542,222.03C679.996,219.44 688.63,222.894 688.63,222.894L698.127,250.954C698.127,250.954 693.378,275.128 689.061,288.511C684.744,301.893 683.018,329.522 684.744,332.112C686.471,334.702 650.209,345.063 632.51,338.587C614.81,332.112 610.925,324.773 610.925,324.773C610.925,324.773 630.351,297.145 623.876,284.194C617.401,271.243 622.581,256.566 622.581,256.566L619.991,241.888L634.668,233.686C634.668,233.686 635.532,225.916 638.985,225.916C642.439,225.916 656.253,219.008 656.253,219.008Z" style="fill:rgb(208,205,225);fill-rule:nonzero;"/>
        </g>
        <g transform="matrix(1,0,0,1,-102.797,-110.933)">
            <path d="M626.466,242.32L619.991,242.32C616.343,245.733 614.708,250.801 615.674,255.702C617.401,263.904 625.188,291.097 625.188,291.097L631.646,274.265L626.466,242.32Z" style="fill:rgb(208,205,225);fill-rule:nonzero;"/>
        </g>
        <g transform="matrix(1,0,0,1,-102.797,-110.933)">
            <path d="M607.871,311.647C607.871,311.647 594.953,325.636 604.45,332.975C613.947,340.314 616.287,316.139 616.287,316.139L607.871,311.647Z" style="fill:rgb(255,184,184);fill-rule:nonzero;"/>
        </g>
        <g transform="matrix(1,0,0,1,-102.797,-110.933)">
            <path d="M626.466,282.467L623.444,294.554L618.264,304.052C618.264,304.052 600.565,315.707 600.565,320.024C600.565,320.024 608.335,310.095 618.264,320.024L627.114,298.656L626.466,282.467Z" style="fill:rgb(208,205,225);fill-rule:nonzero;"/>
        </g>
        <ellipse cx="538.477" cy="70.387" rx="19.775" ry="11.865" style="fill:rgb(47,46,65);"/>
        <g transform="matrix(1,0,0,1,-102.797,-110.933)">
            <path d="M680.427,182.315C680.427,182.315 666.613,174.544 661.001,180.156C655.389,185.768 677.837,194.402 677.837,194.402L680.427,182.315Z" style="fill:rgb(255,184,184);fill-rule:nonzero;"/>
        </g>
        <g transform="matrix(1,0,0,1,-102.797,-110.933)">
            <path d="M685.608,225.052L688.63,222.894C688.63,222.894 692.083,217.713 695.105,219.44C698.127,221.167 715.826,212.965 715.826,212.965C715.826,212.965 709.351,215.987 709.351,210.806C709.351,205.626 708.487,206.489 704.17,206.489C699.854,206.489 699.854,208.648 698.127,205.626C696.4,202.604 697.263,200.877 694.242,202.604C691.22,204.331 687.766,203.036 686.903,201.741C686.039,200.446 670.498,198.287 670.498,198.287C670.498,198.287 676.542,180.588 677.837,179.293C679.132,177.998 712.373,192.675 712.373,192.675C712.373,192.675 754.247,204.331 743.454,217.713C732.662,231.096 693.81,251.385 693.81,251.385L685.608,225.052Z" style="fill:rgb(208,205,225);fill-rule:nonzero;"/>
        </g>
    </g>
    <g transform="matrix(0.818528,0,0,0.818528,180.457,0)">
        <g transform="matrix(0.999999,-0.001605,0.001605,0.999999,-103.955,-109.458)">
            <ellipse cx="918.756" cy="722.299" rx="178.447" ry="31.534" style="fill:rgb(230,230,230);"/>
        </g>
        <g transform="matrix(1,0,0,1,-102.797,-110.933)">
            <path d="M766.407,110.933L844.288,111.417C844.288,111.417 972.476,179.623 882.502,320.872C882.502,320.872 845.739,312.165 805.105,342.157C805.106,342.157 781.403,116.254 766.407,110.933Z" style="fill:rgb(45,61,80);fill-rule:nonzero;"/>
        </g>
        <g transform="matrix(1,0,0,1,-102.797,-110.933)">
            <path d="M789.574,111.64C803.527,169.923 819.3,320.246 819.3,320.246C855.603,293.451 888.793,297.543 895.46,298.72C891.528,306.506 887.203,314.088 882.502,321.436C877.802,328.784 845.739,312.728 805.105,342.72C805.105,342.72 781.403,116.818 766.407,111.497L789.574,111.64Z" style="fill-opacity:0.2;fill-rule:nonzero;"/>
        </g>
        <path d="M780.189,73.043L786.961,105.937L872.069,90.467L872.097,90.457L874.032,51.759L857.586,51.759L780.189,73.043Z" style="fill:rgb(63,61,86);fill-rule:nonzero;"/>
        <path d="M858.959,51.759L872.069,90.467L872.097,90.457L874.032,51.759L858.959,51.759Z" style="fill-opacity:0.2;fill-rule:nonzero;"/>
        <ellipse cx="783.091" cy="87.555" rx="9.675" ry="22.252" style="fill:rgb(63,61,86);"/>
        <g transform="matrix(1,0,0,1,-102.797,-110.933)">
            <path d="M936.197,668.729L936.196,668.729C934.574,668.729 933.239,667.395 933.239,665.773L933.239,198.489C933.239,196.866 934.574,195.532 936.197,195.532C937.819,195.532 939.154,196.866 939.154,198.489L939.154,665.772C939.154,665.772 939.154,665.772 939.154,665.772C939.154,667.394 937.819,668.729 936.197,668.729Z" style="fill:rgb(63,61,86);fill-rule:nonzero;"/>
        </g>
        <g transform="matrix(1,0,0,1,-102.797,-110.933)">
            <path d="M895.567,750.964C895.565,750.964 895.563,750.964 895.561,750.964C893.94,750.964 892.606,749.63 892.606,748.008C892.606,747.818 892.624,747.628 892.661,747.441L930.409,553.921L831.282,705.125C830.736,705.96 829.803,706.465 828.806,706.465C827.183,706.465 825.848,705.13 825.848,703.507C825.848,702.93 826.018,702.364 826.335,701.882L933.723,538.079C934.269,537.247 935.201,536.744 936.196,536.744C937.819,536.744 939.154,538.079 939.154,539.702C939.154,539.892 939.136,540.081 939.099,540.267L898.466,748.573C898.196,749.955 896.975,750.962 895.567,750.964Z" style="fill:rgb(63,61,86);fill-rule:nonzero;"/>
        </g>
        <g transform="matrix(1,0,0,1,-102.797,-110.933)">
            <path d="M1048.42,714.2C1047.43,714.201 1046.5,713.698 1045.95,712.863L933.723,541.623C933.406,541.141 933.237,540.576 933.237,539.998C933.237,538.376 934.572,537.042 936.194,537.042C937.191,537.042 938.124,537.547 938.67,538.382L1050.89,709.622C1051.21,710.104 1051.38,710.667 1051.38,711.243C1051.38,712.864 1050.05,714.198 1048.42,714.2Z" style="fill:rgb(63,61,86);fill-rule:nonzero;"/>
        </g>
    </g>
</svg>
